PathFileType	4	(X/Y/Z)	72_2_37_p1_0-183_filt_butterworth.trc
DataRate	CameraRate	NumFrames	NumMarkers	Units	OrigDataRate	OrigDataStartFrame	OrigNumFrames
50.0	50.0	5	27	m	50.0	91	183
Frame#	Time	RHip			RKnee			RAnkle			RBigToe			RSmallToe			RHeel			LHip			LKnee			LAnkle			LBigToe			LSmallToe			LHeel			Neck			Head			Nose			RShoulder			RElbow			RWrist			RThumb			RIndex			RPinky			LShoulder			LElbow			LWrist			LThumb			LIndex			LPinky			
		X1	Y1	Z1	X2	Y2	Z2	X3	Y3	Z3	X4	Y4	Z4	X5	Y5	Z5	X6	Y6	Z6	X7	Y7	Z7	X8	Y8	Z8	X9	Y9	Z9	X10	Y10	Z10	X11	Y11	Z11	X12	Y12	Z12	X13	Y13	Z13	X14	Y14	Z14	X15	Y15	Z15	X16	Y16	Z16	X17	Y17	Z17	X18	Y18	Z18	X19	Y19	Z19	X20	Y20	Z20	X21	Y21	Z21	X22	Y22	Z22	X23	Y23	Z23	X24	Y24	Z24	X25	Y25	Z25	X26	Y26	Z26	X27	Y27	Z27	
91	1.82	0.1505861089661507	0.5304813565715629	0.579665527156959	0.19646943483729523	0.5811366642598496	1.0437480083013722	0.21419644526069	0.6439699544081559	1.465286115450333	0.17796117075611265	0.4616974940702766	1.4923919179063496	0.2580760957903956	0.4697717958164557	1.4726305903916597	0.1955218929624959	0.743807713592198	1.5627794361776692	-0.062074942690505945	0.5436404714070782	0.6199760132624987	-0.04051178198645749	0.6234299516266946	1.0343142317645262	-0.034214897567739176	0.7093851601994765	1.4603869479262503	-0.02870083873586368	0.46328990791382946	1.446081926089485	-0.09334025806867452	0.5227407918703104	1.463664686060951	-0.035129475346745605	0.795123036975415	1.5567078790024187	-0.050061934584163574	0.5293197943932199	-0.0016371182079581033	-0.10263633139697631	0.45756312195291793	-0.24961131407268466	-0.05465979254828552	0.3805560589769468	-0.12592806170069873	0.13808360779023962	0.5390810559529816	0.04710633479059741	0.2651639345457282	0.5812362024059998	0.3121299881759041	0.2815542908722627	0.5029148798808745	0.5532766223178154	0.2639839320863447	0.44674071425404727	0.6845154535892533	0.28656296551753613	0.4006328290647505	0.6711485312947658	0.32441088107967087	0.4504150470668842	0.6829347906954315	-0.20068663289841637	0.5901930710770472	0.08710843757430091	-0.31920395155094056	0.4367716044378951	0.22468997215543018	-0.19739763368055463	0.47124976492431314	0.02319511797565714	-0.18137494540831495	0.5035637927491705	-0.060559434032286676	-0.18957624635015569	0.511218388537082	-0.09029243310590629	-0.1959985920162241	0.4787564322674377	-0.07740950978398038
92	1.84	0.15054788766866056	0.5299487539743961	0.5831910465385631	0.19450202870000577	0.577655991918454	1.0410547237520806	0.21410693855664137	0.6440365421566626	1.4653642384333818	0.17800174546291664	0.461652140432914	1.4924105219237715	0.25792667727286644	0.46987332093167195	1.4729974068403238	0.19546543196912586	0.7437202443495411	1.5633684628079152	-0.06256861728762811	0.5434255726002098	0.6211212534419279	-0.04030376360409649	0.626840366241048	1.0362484048674951	-0.03617266957515138	0.7090158332487939	1.460242537598077	-0.028710122336653987	0.46318602054730323	1.4460520990550392	-0.0932613253576714	0.5224842439083743	1.4635016493802349	-0.03521099652341553	0.7963915861666893	1.5609515700308936	-0.05210902297248261	0.5327679121040405	-0.0031132879075171553	-0.10259935838333877	0.45803735049310323	-0.24952593552926403	-0.05728334156282103	0.3826968007667787	-0.1263145286319038	0.1371987920031692	0.5441874684594197	0.04764211450477347	0.2631299494156388	0.5814083308887334	0.3117194841103514	0.27907342738526947	0.5034950345047697	0.5543386605503816	0.26215127538510147	0.4539991558070373	0.684622699113929	0.2846271286961522	0.40542672865227397	0.672895063538726	0.321134295358817	0.44960133197079155	0.6820926485685528	-0.2010205170438712	0.5904733053014642	0.08659238401607383	-0.3220917951881241	0.4342864895736749	0.2252410131082535	-0.20027207908305766	0.4676162652336646	0.02272358306922774	-0.1810146047029177	0.5042604902270875	-0.0594407068126256	-0.1895614834631411	0.5146713642639577	-0.0893167072455477	-0.19827159019177742	0.48146137054352794	-0.07748273583212711
93	1.86	0.15069721300021674	0.5295406833401926	0.587584540085355	0.19226769874230515	0.5726705932206142	1.0381499401632355	0.21409238227611865	0.6441296078924981	1.4644226105544718	0.17804222057303395	0.4616102017364307	1.4924473937334586	0.257209879471883	0.4698554790552644	1.4732623989620286	0.1953166137249156	0.7435408608946981	1.5632182708531466	-0.06338345040187202	0.5433965904390216	0.6228251646454657	-0.04131695724764398	0.6285181795696831	1.0385264809682688	-0.037644493910203226	0.7087529712235869	1.460032253346469	-0.028747647411165624	0.4632372872250759	1.4460955995330096	-0.09323328351379759	0.522613463766633	1.4634964078084043	-0.034785509481744595	0.7975709630495391	1.5627059393216691	-0.05488414144982863	0.5377042810957439	-0.0022089371644147654	-0.10216868689768513	0.4583267238392335	-0.24924720620841187	-0.059794566608207055	0.38320478667619495	-0.1269122212889158	0.1367285873819946	0.5477578605324055	0.04693365971178477	0.2598146967330291	0.5787154023154917	0.3112995303454388	0.276771787360878	0.5035314459989086	0.5548422579912436	0.2591704408682891	0.4589456152695814	0.6826848577618334	0.2818309546278706	0.41508044594783244	0.6758952566891232	0.3182104851217451	0.4580037681503632	0.6849094724687342	-0.20298731957206523	0.5914523476713845	0.08639781011484773	-0.32421139885758443	0.4312747945838892	0.22523106789821282	-0.2034401848872809	0.4632451523880096	0.02197460259436069	-0.18153817179740103	0.5036325447074241	-0.06005732066537573	-0.19002782202334145	0.513789847839371	-0.08908725515737634	-0.19830314898133758	0.4888304598605941	-0.07698754883752523
94	1.88	0.1508463735573137	0.5294952644388126	0.5894906363411164	0.19068775311093264	0.5691629709892017	1.0365264928517226	0.21396501895016234	0.6440215967577634	1.462942693917745	0.1781060340256646	0.46171602227133646	1.4925132809177841	0.25649436185974994	0.4695483546714569	1.4729609470799063	0.19467388687662537	0.7430989766083185	1.5621676292260989	-0.06478517847210419	0.5433544482960143	0.624008918129246	-0.043369461267040776	0.6285369914861072	1.0401367036765383	-0.03811303623927623	0.7086483528581395	1.4598731060724672	-0.028790378043910308	0.4632808632781573	1.4461907699283991	-0.09356129900628973	0.5241557855770292	1.4643212933773813	-0.03401422498671475	0.7962086806147228	1.5592530843565566	-0.05659467330481258	0.5413332032159327	-0.0009152171376375312	-0.10242720223035874	0.4583910404436956	-0.24891914818004818	-0.062157477532029035	0.38055977699699584	-0.12771275536951385	0.13685729227819776	0.5487244209934766	0.04567351753432691	0.25601139981135246	0.5766321010881448	0.31115698005126374	0.27537581151901597	0.5032387709896551	0.5544824996012652	0.25558449428100416	0.4611138313230756	0.6796824291887075	0.2788596357530498	0.42504217431020713	0.6782927314556468	0.31508042246381923	0.47043689205710115	0.6895185657807603	-0.20536363573263536	0.5922184057695961	0.08645131452949371	-0.32559642247911186	0.4298888127149946	0.22494853912110682	-0.20597948591751586	0.4573788211485282	0.020576680066329303	-0.18395680112973956	0.4987744613761624	-0.06145327336672656	-0.19101130265237598	0.5054519162807394	-0.0896321733363455	-0.19735585246889992	0.494426145162972	-0.07632186459760923
95	1.9	0.1506574912305172	0.529769832888269	0.5886498495739408	0.19025765688096608	0.5682723040409203	1.0363016697766503	0.21363515818827472	0.6435158529920677	1.4615986208676335	0.17817601042328632	0.4619525144771174	1.4925648343527276	0.2563366344300484	0.46892275554402674	1.4725170576173146	0.19401719300852213	0.7425547903215817	1.5601713917422804	-0.06629203904683884	0.5431304485281815	0.624188344638196	-0.04620202063438577	0.6283291096390657	1.0396191053638202	-0.037645484791215954	0.7086171218108572	1.4598270082182923	-0.02881725657380401	0.46327207865995973	1.4462139943101564	-0.09427482300083508	0.5271854290122469	1.466057803874228	-0.03276969766234085	0.790565424853248	1.5519438307489084	-0.05712141231027963	0.5425890267098143	-0.001256021862569824	-0.10460218194670756	0.4584297266766746	-0.2492186156236609	-0.06479748624895003	0.3761572892624299	-0.12894108573840396	0.13674684187867722	0.5484530451650728	0.04496549444102242	0.25249090624780185	0.5771658180800646	0.31139384383649465	0.27503202824098577	0.5029989931499155	0.5532479363935764	0.2538067212072155	0.4616817948563755	0.677621208322312	0.2767354938367914	0.4304740122247635	0.678804839603661	0.3122329026373082	0.47617306554646655	0.6922921972244215	-0.20686406358752912	0.5923448060555524	0.086478678759408	-0.32789405415671663	0.4293913718798476	0.22363446647842175	-0.20730610514419778	0.45186150319231894	0.018714219579206305	-0.18767576646016942	0.4893528951021973	-0.06232982846722998	-0.192494147135568	0.4892127445116033	-0.09166569870499712	-0.1972907936014749	0.4903654297430241	-0.0763662189277897
